<!--?xml version="1.0" encoding="utf-8"?-->
<!-- Generator: Adobe Illustrator 18.1.1, SVG Export Plug-In . SVG Version: 6.00 Build 0)  -->

<svg version="1.1" id="_x31_0" xmlns="http://www.w3.org/2000/svg" xmlns:xlink="http://www.w3.org/1999/xlink" x="0px" y="0px" viewBox="0 0 512 512" style="width: 256px; height: 256px; opacity: 1;" xml:space="preserve">
<style type="text/css">
	.st0{fill:#374149;}
</style>
<g>
	<path class="st0" d="M256,0C114.614,0,0,114.617,0,256c0,141.386,114.614,256,256,256s256-114.614,256-256
		C512,114.617,397.386,0,256,0z M239.683,127.344c0-1.367,1.118-2.477,2.477-2.477h27.68c1.359,0,2.477,1.11,2.477,2.477v114.242
		c0,1.36-1.118,2.473-2.477,2.473h-27.68c-1.359,0-2.477-1.113-2.477-2.473V127.344z M375.718,289.539
		c-1.602,7.922-4,15.602-7.202,23.039c-3.039,7.203-6.798,14.16-11.199,20.718c-4.399,6.485-9.438,12.562-14.958,18.082
		c-5.523,5.519-11.602,10.558-18.082,14.878c-6.481,4.398-13.52,8.16-20.719,11.282c-7.359,3.117-15.121,5.519-22.961,7.117
		c-8.082,1.602-16.32,2.485-24.641,2.485c-8.238,0-16.48-0.883-24.558-2.485c-7.84-1.598-15.602-4-22.961-7.117
		c-7.282-3.122-14.238-6.883-20.719-11.282h-0.082c-6.398-4.32-12.481-9.359-18-14.878c-5.52-5.52-10.558-11.598-14.957-18.082
		c-4.402-6.558-8.164-13.515-11.282-20.797c-3.121-7.359-5.519-15.039-7.121-22.961c-1.598-8-2.481-16.321-2.481-24.562
		c0-8.321,0.883-16.559,2.481-24.637c1.602-7.84,4-15.602,7.121-22.961c3.118-7.278,6.879-14.238,11.282-20.723
		c4.398-6.476,9.437-12.554,14.957-18.078c5.519-5.52,11.602-10.559,18-14.962l0.082,0.082c4.352-2.946,8.958-5.582,13.665-7.938
		c0.914-0.43,1.812-0.953,2.734-1.344v46.481c-2.238,1.84-4.398,3.758-6.398,5.758c-3.762,3.762-7.121,7.844-10.082,12.242
		c-2.957,4.398-5.52,9.121-7.598,14c-2.082,4.961-3.762,10.16-4.801,15.442c-1.122,5.442-1.68,11.039-1.68,16.637
		c0,5.602,0.558,11.203,1.68,16.64c1.039,5.282,2.718,10.485,4.801,15.442c2.078,4.879,4.641,9.598,7.598,14
		c2.961,4.321,6.32,8.481,10.082,12.16c3.68,3.758,7.84,7.122,12.161,10.078c4.48,3.043,9.121,5.523,14,7.602
		c4.957,2.16,10.16,3.758,15.519,4.801c10.801,2.238,22.398,2.238,33.199,0c5.282-1.043,10.481-2.641,15.442-4.801
		c4.961-2.078,9.598-4.558,14-7.602c4.398-2.957,8.477-6.32,12.238-10.078c3.762-3.679,7.121-7.839,10.082-12.16
		c2.958-4.402,5.52-9.121,7.598-14c2.082-4.957,3.762-10.16,4.801-15.442c1.122-5.437,1.68-11.038,1.68-16.64
		c0-5.598-0.558-11.195-1.68-16.637c-1.039-5.282-2.718-10.481-4.801-15.442c-2.078-4.879-4.64-9.602-7.598-14
		c-2.961-4.398-6.32-8.481-10.082-12.242c-2.078-2-4.161-3.918-6.398-5.679v-32.649l0.07-13.953
		c5.656,2.71,11.152,5.82,16.328,9.324v-0.082c6.48,4.402,12.558,9.442,18.082,14.962c5.52,5.523,10.558,11.602,14.958,18.078
		c4.402,6.485,8.16,13.446,11.199,20.723c3.202,7.359,5.601,15.121,7.202,22.961c1.598,8.078,2.481,16.316,2.481,24.637
		C378.199,273.218,377.317,281.539,375.718,289.539z" style="fill: rgb(118, 118, 118);"></path>
</g>
</svg>
