<!--?xml version="1.0" encoding="utf-8"?-->
<!-- Generator: Adobe Illustrator 18.1.1, SVG Export Plug-In . SVG Version: 6.00 Build 0)  -->

<svg version="1.1" id="_x31_0" xmlns="http://www.w3.org/2000/svg" xmlns:xlink="http://www.w3.org/1999/xlink" x="0px" y="0px" viewBox="0 0 512 512" style="width: 256px; height: 256px; opacity: 1;" xml:space="preserve">
<style type="text/css">
	.st0{fill:#374149;}
</style>
<g>
	<path class="st0" d="M368.149,244.383l-146.883-84.805c-2.953-1.707-6.133-2.047-9.09-1.496c-0.126,0.023-0.25,0.027-0.371,0.054
		c-0.715,0.152-1.394,0.379-2.07,0.645c-0.23,0.09-0.453,0.183-0.676,0.281c-0.66,0.305-1.297,0.633-1.902,1.035
		c-0.062,0.043-0.117,0.094-0.179,0.137c-2,1.379-3.59,3.282-4.606,5.578c-0.054,0.125-0.11,0.242-0.16,0.367
		c-0.294,0.726-0.535,1.465-0.699,2.258c-0.031,0.141-0.035,0.293-0.059,0.442c-0.133,0.762-0.316,1.504-0.316,2.32v169.606
		c0,0.812,0.183,1.554,0.316,2.32c0.024,0.145,0.028,0.297,0.059,0.438c0.164,0.793,0.406,1.535,0.703,2.262
		c0.05,0.122,0.102,0.238,0.152,0.359c1.019,2.305,2.617,4.211,4.625,5.59c0.055,0.039,0.102,0.086,0.16,0.125
		c0.61,0.406,1.246,0.734,1.918,1.039c0.214,0.102,0.434,0.191,0.656,0.278c0.68,0.269,1.363,0.496,2.082,0.648
		c0.117,0.027,0.242,0.031,0.363,0.054c2.961,0.551,6.137,0.215,9.094-1.492l146.883-84.805
		C377.094,262.457,377.094,249.547,368.149,244.383z" style="fill: rgb(74, 58, 53);"></path>
	<path class="st0" d="M256,0C114.614,0,0,114.617,0,256c0,141.386,114.614,256,256,256c141.383,0,256-114.614,256-256
		C512,114.617,397.383,0,256,0z M256,448c-105.871,0-192-86.129-192-192c0-105.867,86.129-192,192-192c105.867,0,192,86.133,192,192
		C448,361.871,361.867,448,256,448z" style="fill: rgb(74, 58, 53);"></path>
</g>
</svg>
